<mxfile host="www.draw.io" modified="2019-10-15T08:13:03.957Z" agent="Mozilla/5.0 (Macintosh; Intel Mac OS X 10_14_0) AppleWebKit/537.36 (KHTML, like Gecko) Chrome/76.0.3809.132 Safari/537.36" etag="vdc9jBLXkiEImeY2SJsC" version="12.1.1" type="github" pages="1">
  <diagram id="SMHw2-AFuEt7AuMqC9J0" name="第 1 页">
    <mxGraphModel dx="2052" dy="1117" grid="1" gridSize="10" guides="1" tooltips="1" connect="1" arrows="1" fold="1" page="1" pageScale="1" pageWidth="827" pageHeight="1169" math="0" shadow="0">
      <root>
        <mxCell id="0"/>
        <mxCell id="1" parent="0"/>
      </root>
    </mxGraphModel>
  </diagram>
</mxfile>
